<svg width="32" height="32" viewBox="0 0 32 32" fill="none" xmlns="http://www.w3.org/2000/svg">
  <!-- Shopping cart with spider web pattern -->
  <defs>
    <linearGradient id="gradient" x1="0%" y1="0%" x2="100%" y2="100%">
      <stop offset="0%" style="stop-color:#3B82F6;stop-opacity:1" />
      <stop offset="100%" style="stop-color:#1D4ED8;stop-opacity:1" />
    </linearGradient>
  </defs>
  
  <!-- Background circle -->
  <circle cx="16" cy="16" r="15" fill="url(#gradient)" stroke="#1E40AF" stroke-width="2"/>
  
  <!-- Shopping cart -->
  <path d="M6 6h2l1.68 8.39a2 2 0 0 0 2 1.61h9.72a2 2 0 0 0 2-1.61L25 8H8" 
        stroke="white" stroke-width="2" fill="none" stroke-linecap="round" stroke-linejoin="round"/>
  
  <!-- Cart wheels -->
  <circle cx="11" cy="25" r="1.5" fill="white"/>
  <circle cx="21" cy="25" r="1.5" fill="white"/>
  
  <!-- Spider web pattern overlay (subtle) -->
  <path d="M16 4 L16 28 M4 16 L28 16 M8 8 L24 24 M24 8 L8 24" 
        stroke="rgba(255,255,255,0.2)" stroke-width="0.5"/>
  
  <!-- Sales tag -->
  <path d="M20 6 L26 6 L26 12 L23 9 Z" fill="white" opacity="0.9"/>
  <circle cx="24" cy="8" r="1" fill="url(#gradient)"/>
</svg>
